<svg width="94" height="94" viewBox="0 0 94 94" fill="none" xmlns="http://www.w3.org/2000/svg">
<g clip-path="url(#clip0_2484_1708)">
<path d="M7.36216 71.9319C15.6344 84.8657 30.1218 93.4414 46.6135 93.4414C63.1052 93.4414 77.6014 84.8657 85.8649 71.9319C74.7004 63.1893 61.0218 58.4445 46.6135 58.4445C32.2052 58.4445 18.5266 63.1893 7.36216 71.9319Z" fill="#00354C"/>
<path d="M46.6135 50.0709C36.8732 50.0709 27.423 51.9776 18.5266 55.7383C13.1466 58.014 8.1006 60.9048 3.45901 64.3843C4.12712 66.0361 4.89192 67.6441 5.74464 69.1993C17.4014 60.1755 31.6338 55.2901 46.6223 55.2901C61.6108 55.2901 75.8344 60.1843 87.4912 69.1993C88.3439 67.6441 89.0999 66.0361 89.7768 64.3843C85.1352 60.9136 80.0892 58.0228 74.7092 55.7383C65.8128 51.9776 56.3626 50.0709 46.6223 50.0709" fill="#8CC747"/>
<path d="M15.863 53.4625C16.0827 53.3659 16.3025 53.2692 16.5223 53.1725C16.786 53.0583 17.0497 52.9441 17.3135 52.8299C17.6036 52.7069 17.9024 52.5838 18.1925 52.4696C18.3859 52.3905 18.5881 52.3027 18.7815 52.2236C19.2738 52.0303 19.7749 51.837 20.276 51.6525C20.4079 51.6085 20.5397 51.5558 20.6628 51.5119C21.0672 51.3625 21.4715 51.2131 21.8847 51.0726C22.0078 51.0286 22.1397 50.9847 22.2627 50.9408C22.7023 50.7914 23.1418 50.642 23.5814 50.5014C23.6693 50.4751 23.7484 50.4487 23.8363 50.4223C25.5066 49.8952 27.2032 49.4207 28.9174 49.0077V32.4802C25.6209 40.3002 21.0408 47.4349 15.441 53.6382C15.5729 53.5767 15.7135 53.5152 15.8454 53.4537" fill="#008CC6"/>
<path d="M64.292 34.5099V49.0077C66.0062 49.4207 67.7029 49.8952 69.3731 50.4223C69.461 50.4487 69.549 50.4751 69.6369 50.5102C70.0764 50.6508 70.516 50.8002 70.9555 50.9495C71.0874 50.9935 71.2104 51.0374 71.3335 51.0813C71.7467 51.2219 72.1511 51.3713 72.5554 51.5207C72.6873 51.5646 72.8104 51.6173 72.9422 51.6613C73.4433 51.8458 73.9444 52.0391 74.4367 52.2324C74.6301 52.3115 74.8323 52.3905 75.0257 52.4696C75.3246 52.5926 75.6147 52.7069 75.9048 52.8299C76.1685 52.9441 76.4322 53.0583 76.696 53.1725C76.9157 53.2692 77.1355 53.3659 77.3553 53.4625C77.4871 53.524 77.6278 53.5767 77.7596 53.6382C72.1598 47.4349 67.5798 40.2914 64.2832 32.4802V34.5099H64.292Z" fill="#008CC6"/>
<path d="M46.6135 0.391602C20.9089 0.391602 0.0657196 21.2158 0.0657196 46.9165C0.0657196 51.9336 0.865691 56.7663 2.33377 61.3001C2.33377 61.3001 2.33377 61.3001 2.34256 61.3001C2.44805 61.2211 2.55354 61.142 2.66782 61.0629C5.43696 58.9981 8.05664 56.7223 10.5357 54.2533C17.164 47.6282 22.3682 39.9136 25.9989 31.3291C27.1505 28.6053 28.135 25.8287 28.935 22.9995C29.19 22.0944 29.4273 21.1806 29.6471 20.2756H32.091C32.091 21.3036 32.091 22.3229 32.091 23.43V30.099V48.3399C36.7941 47.4173 41.6467 46.9341 46.6135 46.9341C51.5804 46.9341 56.4241 47.4173 61.1097 48.3311H61.1361V23.4212C61.1361 22.9819 61.1361 22.5777 61.1361 22.1911C61.1361 21.5409 61.1361 20.9434 61.1361 20.2844H63.5799C63.7997 21.1982 64.0371 22.1032 64.292 23.0082C65.092 25.8287 66.0766 28.6141 67.2282 31.3379C70.8588 39.9224 76.063 47.637 82.6913 54.2621C85.1616 56.7311 87.7901 59.0068 90.5592 61.0717C90.6647 61.1508 90.779 61.2298 90.8845 61.3089C92.3613 56.7838 93.1525 51.9424 93.1525 46.9253C93.1525 21.2334 72.3093 0.400388 46.6047 0.400388M57.6021 20.1965C51.5364 20.1965 46.6135 25.117 46.6135 31.1798V31.2061C46.6135 25.1434 41.6906 20.2229 35.6249 20.2229V20.2053C41.6906 20.2053 46.6135 15.2848 46.6135 9.22211V9.19575C46.6135 15.2585 51.5364 20.179 57.6021 20.179V20.1965Z" fill="#008CC6"/>
</g>
<defs>
<clipPath id="clip0_2484_1708">
<rect width="94" height="94" fill="white"/>
</clipPath>
</defs>
</svg>
