<svg width="300" height="94" viewBox="0 0 300 94" fill="none" xmlns="http://www.w3.org/2000/svg">
<g clip-path="url(#clip0_2021_1059)">
<path d="M126.795 23.0961V38.6044H125.178V31.4434H115.464V38.6044H113.829V23.0961H115.464V30.0024H125.178V23.0961H126.795Z" fill="#008CC6"/>
<path d="M141.177 34.4572H132.527L130.663 38.6044H128.958L136.052 23.0961H137.67L144.764 38.6044H143.032L141.168 34.4572H141.177ZM140.579 33.1304L136.852 24.8007L133.125 33.1304H140.571H140.579Z" fill="#008CC6"/>
<path d="M162.038 37.181V42.2333H160.508V38.6044H146.962V23.0961H148.579V37.181H157.959V23.0961H159.577V37.181H162.038Z" fill="#008CC6"/>
<path d="M164.359 23.0961H165.976V35.9421L175.901 23.0961H177.387V38.6044H175.769V25.776L165.844 38.6044H164.359V23.0961Z" fill="#008CC6"/>
<path d="M184.235 37.7082C182.987 37.0228 182.011 36.0827 181.308 34.8877C180.604 33.6927 180.253 32.3484 180.253 30.8547C180.253 29.361 180.604 28.0166 181.308 26.8216C182.011 25.6267 182.987 24.6865 184.235 24.0011C185.483 23.3158 186.872 22.9731 188.411 22.9731C189.949 22.9731 191.338 23.3158 192.569 23.9924C193.799 24.6689 194.775 25.6179 195.487 26.8216C196.199 28.0254 196.551 29.3697 196.551 30.8635C196.551 32.3572 196.199 33.7015 195.487 34.9053C194.775 36.109 193.808 37.0492 192.569 37.7258C191.338 38.4023 189.949 38.745 188.411 38.745C186.872 38.745 185.483 38.4023 184.235 37.717M191.734 36.4429C192.727 35.8894 193.501 35.1249 194.063 34.1409C194.626 33.1568 194.907 32.0584 194.907 30.8547C194.907 29.6509 194.626 28.5438 194.063 27.5685C193.501 26.5844 192.727 25.82 191.734 25.2664C190.74 24.7129 189.633 24.4317 188.411 24.4317C187.189 24.4317 186.072 24.7129 185.079 25.2664C184.077 25.82 183.294 26.5932 182.732 27.5685C182.16 28.5526 181.879 29.6509 181.879 30.8547C181.879 32.0584 182.16 33.1655 182.732 34.1409C183.303 35.1249 184.086 35.8894 185.079 36.4429C186.072 36.9965 187.189 37.2777 188.411 37.2777C189.633 37.2777 190.749 36.9965 191.734 36.4429Z" fill="#008CC6"/>
<path d="M212.366 23.0961V38.6044H210.74V31.4434H201.034V38.6044H199.391V23.0961H201.034V30.0024H210.74V23.0961H212.366Z" fill="#008CC6"/>
<path d="M226.748 34.4572H218.098L216.234 38.6044H214.528L221.623 23.0961H223.24L230.334 38.6044H228.603L226.739 34.4572H226.748ZM226.15 33.1304L222.423 24.8007L218.695 33.1304H226.141H226.15Z" fill="#008CC6"/>
<path d="M245.991 23.0961V38.6044H244.374V24.5108H236.884L236.708 29.6948C236.638 31.8388 236.462 33.5609 236.189 34.8701C235.917 36.1793 235.495 37.1546 234.941 37.7961C234.378 38.4375 233.631 38.7626 232.699 38.7626C232.304 38.7626 231.89 38.7099 231.46 38.6044L231.592 37.1459C231.846 37.2074 232.084 37.2337 232.321 37.2337C232.972 37.2337 233.499 36.9789 233.904 36.4605C234.308 35.9421 234.616 35.1425 234.827 34.053C235.038 32.9635 235.178 31.5312 235.249 29.7476L235.468 23.0961H246H245.991Z" fill="#008CC6"/>
<path d="M260.936 37.181V38.6044H249.965V23.0961H260.602V24.5108H251.608V30.0287H259.626V31.4258H251.608V37.181H260.936Z" fill="#008CC6"/>
<path d="M276.399 23.0961V38.6044H274.781V31.4434H265.067V38.6044H263.432V23.0961H265.067V30.0024H274.781V23.0961H276.399Z" fill="#008CC6"/>
<path d="M113.82 46.5651H117.389V56.6696L124.791 46.5651H128.158V62.0734H124.615V51.9952L117.213 62.0734H113.82V46.5651Z" fill="#00354C"/>
<path d="M145.467 46.5651V62.0734H141.88V55.7119H134.83V62.0734H131.235V46.5651H134.83V52.6805H141.88V46.5651H145.467Z" fill="#00354C"/>
<path d="M151.726 61.3001C150.434 60.606 149.423 59.6483 148.693 58.4269C147.964 57.2056 147.595 55.8349 147.595 54.3148C147.595 52.7947 147.964 51.424 148.693 50.2027C149.423 48.9814 150.434 48.0236 151.726 47.3295C153.019 46.6353 154.469 46.2927 156.087 46.2927C157.704 46.2927 159.146 46.6441 160.429 47.3295C161.713 48.0236 162.724 48.9814 163.471 50.2027C164.209 51.424 164.579 52.7947 164.579 54.3148C164.579 55.8349 164.209 57.2056 163.471 58.4269C162.732 59.6483 161.722 60.606 160.429 61.3001C159.146 61.9943 157.695 62.337 156.087 62.337C154.478 62.337 153.019 61.9943 151.726 61.3001ZM158.566 58.6554C159.304 58.2336 159.884 57.6449 160.306 56.8981C160.728 56.1424 160.939 55.2901 160.939 54.3236C160.939 53.3571 160.728 52.5048 160.306 51.7491C159.884 50.9935 159.304 50.4136 158.566 49.9918C157.827 49.5701 157.001 49.3592 156.087 49.3592C155.172 49.3592 154.346 49.5701 153.608 49.9918C152.869 50.4136 152.289 51.0023 151.867 51.7491C151.445 52.5048 151.234 53.3571 151.234 54.3236C151.234 55.2901 151.445 56.1424 151.867 56.8981C152.289 57.6537 152.869 58.2424 153.608 58.6554C154.346 59.0771 155.172 59.288 156.087 59.288C157.001 59.288 157.827 59.0771 158.566 58.6554Z" fill="#00354C"/>
<path d="M179.593 55.3604C180.094 55.9931 180.349 56.7751 180.349 57.7064C180.349 59.0771 179.831 60.1491 178.785 60.9223C177.747 61.6868 176.253 62.0734 174.319 62.0734H166.671V46.5651H173.897C175.699 46.5651 177.106 46.9165 178.108 47.6019C179.11 48.296 179.611 49.2889 179.611 50.5717C179.611 51.345 179.418 52.0127 179.031 52.6014C178.644 53.1814 178.108 53.647 177.413 53.9897C178.363 54.2709 179.084 54.7278 179.585 55.3604M170.24 52.9881H173.589C174.372 52.9881 174.961 52.8299 175.365 52.5136C175.761 52.1973 175.963 51.7316 175.963 51.1077C175.963 50.4839 175.761 50.0358 175.356 49.7107C174.952 49.3856 174.363 49.2186 173.589 49.2186H170.24V52.9881ZM176.71 57.4253C176.71 56.1424 175.866 55.501 174.178 55.501H170.231V59.4198H174.178C175.866 59.4198 176.71 58.752 176.71 57.4253Z" fill="#00354C"/>
<path d="M192.964 58.752H185.756L184.384 62.0734H180.701L187.619 46.5651H191.171L198.107 62.0734H194.336L192.964 58.752ZM191.83 56.0282L189.369 50.0885L186.907 56.0282H191.83Z" fill="#00354C"/>
<path d="M215.891 59.1474V65.3508H212.586V62.0734H199.619V46.5651H203.188V59.1474H210.107V46.5651H213.676V59.1474H215.891Z" fill="#00354C"/>
<path d="M217.667 46.5651H221.236V56.6696L228.638 46.5651H232.005V62.0734H228.462V51.9952L221.06 62.0734H217.667V46.5651Z" fill="#00354C"/>
<path d="M238.237 61.3001C236.945 60.606 235.934 59.6483 235.205 58.4269C234.475 57.2056 234.106 55.8349 234.106 54.3148C234.106 52.7947 234.475 51.424 235.205 50.2027C235.934 48.9814 236.945 48.0236 238.237 47.3295C239.53 46.6353 240.98 46.2927 242.598 46.2927C244.215 46.2927 245.657 46.6441 246.94 47.3295C248.224 48.0236 249.235 48.9814 249.982 50.2027C250.721 51.424 251.09 52.7947 251.09 54.3148C251.09 55.8349 250.721 57.2056 249.982 58.4269C249.244 59.6483 248.233 60.606 246.94 61.3001C245.657 61.9943 244.207 62.337 242.598 62.337C240.989 62.337 239.53 61.9943 238.237 61.3001ZM245.077 58.6554C245.815 58.2336 246.395 57.6449 246.817 56.8981C247.239 56.1424 247.45 55.2901 247.45 54.3236C247.45 53.3571 247.239 52.5048 246.817 51.7491C246.395 50.9935 245.815 50.4136 245.077 49.9918C244.338 49.5701 243.512 49.3592 242.598 49.3592C241.684 49.3592 240.857 49.5701 240.11 49.9918C239.371 50.4136 238.791 51.0023 238.369 51.7491C237.947 52.5048 237.736 53.3571 237.736 54.3236C237.736 55.2901 237.947 56.1424 238.369 56.8981C238.791 57.6537 239.371 58.2424 240.11 58.6554C240.848 59.0771 241.675 59.288 242.598 59.288C243.521 59.288 244.338 59.0771 245.077 58.6554Z" fill="#00354C"/>
<path d="M267.414 46.5651V62.0734H263.828V55.7119H256.777V62.0734H253.182V46.5651H256.777V52.6805H263.828V46.5651H267.414Z" fill="#00354C"/>
<path d="M282.526 59.1914V62.0734H270.518V46.5651H282.245V49.4471H274.087V52.8123H281.286V55.6064H274.087V59.1914H282.526Z" fill="#00354C"/>
<path d="M299.097 46.5651V62.0734H295.501V55.7119H288.451V62.0734H284.864V46.5651H288.451V52.6805H295.501V46.5651H299.097Z" fill="#00354C"/>
<path d="M130.101 81.7904C128.703 82.9678 126.699 83.6181 124.079 83.7499V85.4369H120.774V83.7323C118.145 83.5829 116.132 82.9239 114.734 81.7465C113.336 80.5691 112.642 78.97 112.642 76.949C112.642 74.9281 113.336 73.3114 114.734 72.1516C116.132 70.9917 118.145 70.3328 120.774 70.1658V68.5667H124.079V70.1394C126.699 70.2888 128.703 70.9478 130.101 72.134C131.498 73.3202 132.193 74.9193 132.193 76.9403C132.193 78.9612 131.498 80.6043 130.101 81.7817M120.782 80.9381V72.9863C119.2 73.1357 118.031 73.5311 117.266 74.1725C116.501 74.8139 116.123 75.7453 116.123 76.9578C116.123 79.2951 117.67 80.6218 120.782 80.9469M127.586 79.7256C128.351 79.0666 128.738 78.1352 128.738 76.9227C128.738 74.5591 127.191 73.2411 124.079 72.9775V80.9294C125.644 80.78 126.813 80.3758 127.586 79.7256Z" fill="#00354C"/>
<path d="M137.634 83.9695C136.342 83.2754 135.331 82.3176 134.602 81.0963C133.872 79.875 133.503 78.5043 133.503 76.9842C133.503 75.4641 133.872 74.0934 134.602 72.8721C135.331 71.6507 136.342 70.693 137.634 69.9989C138.927 69.3047 140.377 68.962 141.995 68.962C143.612 68.962 145.054 69.3135 146.337 69.9989C147.621 70.693 148.632 71.6507 149.379 72.8721C150.118 74.0934 150.487 75.4641 150.487 76.9842C150.487 78.5043 150.118 79.875 149.379 81.0963C148.641 82.3176 147.63 83.2754 146.337 83.9695C145.054 84.6636 143.603 85.0063 141.995 85.0063C140.386 85.0063 138.927 84.6636 137.634 83.9695ZM144.474 81.3247C145.212 80.903 145.792 80.3143 146.214 79.5674C146.636 78.8118 146.847 77.9595 146.847 76.993C146.847 76.0264 146.636 75.1741 146.214 74.4185C145.792 73.6629 145.212 73.0829 144.474 72.6524C143.735 72.2306 142.909 72.0198 141.995 72.0198C141.08 72.0198 140.254 72.2306 139.516 72.6524C138.777 73.0742 138.197 73.6629 137.775 74.4185C137.353 75.1741 137.142 76.0264 137.142 76.993C137.142 77.9595 137.353 78.8118 137.775 79.5674C138.197 80.3231 138.777 80.9118 139.516 81.3247C140.254 81.7465 141.08 81.9574 141.995 81.9574C142.909 81.9574 143.735 81.7465 144.474 81.3247Z" fill="#00354C"/>
<path d="M166.811 69.2344V84.7427H163.216V78.39H156.166V84.7427H152.579V69.2344H156.166V75.3499H163.216V69.2344H166.811Z" fill="#00354C"/>
<path d="M186.028 81.8256V87.9586H182.705V84.7427H171.752V87.9586H168.429L168.447 81.8256H169.071C170.003 81.7992 170.662 81.1139 171.04 79.7871C171.427 78.4603 171.664 76.5624 171.752 74.0934L171.928 69.2432H183.857V81.8344H186.028V81.8256ZM174.46 79.0666C174.222 80.3143 173.862 81.2369 173.369 81.8256H180.305V72.1604H174.987L174.925 74.4185C174.846 76.2637 174.697 77.8101 174.46 79.0578" fill="#00354C"/>
<path d="M117.846 15.3991V12.728L116.536 14.9246H116.07L114.761 12.7807V15.3991H113.794V10.9443H114.646L116.317 13.7121L117.96 10.9443H118.813V15.3991H117.846Z" fill="#00354C"/>
<path d="M119.798 10.9443H120.817V13.8439L122.945 10.9443H123.912V15.3991H122.892V12.4995L120.774 15.3991H119.798V10.9443Z" fill="#00354C"/>
<path d="M128.975 10.9443V15.3991H127.947V13.5715H125.925V15.3991H124.896V10.9443H125.925V12.6928H127.947V10.9443H128.975Z" fill="#00354C"/>
<path d="M129.969 10.9443H130.989V13.8439L133.116 10.9443H134.083V15.3991H133.063V12.4995L130.936 15.3991H129.969V10.9443Z" fill="#00354C"/>
<path d="M135.964 15.1794C135.595 14.9861 135.305 14.7049 135.103 14.3623C134.892 14.0108 134.786 13.6154 134.786 13.1761C134.786 12.7367 134.892 12.3414 135.103 11.9899C135.314 11.6384 135.604 11.366 135.964 11.1727C136.333 10.9706 136.747 10.874 137.204 10.874C137.59 10.874 137.942 10.9443 138.25 11.0761C138.557 11.2079 138.821 11.41 139.032 11.6648L138.373 12.2711C138.074 11.9196 137.696 11.7527 137.256 11.7527C136.984 11.7527 136.738 11.8142 136.518 11.9372C136.298 12.0602 136.131 12.2271 136.017 12.4468C135.894 12.6665 135.832 12.9125 135.832 13.1849C135.832 13.4572 135.894 13.7033 136.017 13.9229C136.14 14.1426 136.307 14.3095 136.518 14.4326C136.738 14.5556 136.984 14.6171 137.256 14.6171C137.705 14.6171 138.074 14.4413 138.373 14.0899L139.032 14.7049C138.821 14.9597 138.557 15.1618 138.241 15.2936C137.925 15.4254 137.573 15.4957 137.195 15.4957C136.738 15.4957 136.333 15.3991 135.964 15.197" fill="#00354C"/>
<path d="M143.234 11.779H141.81V15.3991H140.79V11.779H139.366V10.9443H143.234V11.779Z" fill="#00354C"/>
<path d="M147.234 14.5644V15.3991H143.788V10.9443H147.155V11.7702H144.808V12.7368H146.882V13.5363H144.808V14.5644H147.234Z" fill="#00354C"/>
<path d="M150.953 11.1376C151.243 11.2694 151.463 11.4539 151.621 11.7C151.779 11.9372 151.858 12.2271 151.858 12.561C151.858 12.8949 151.779 13.1761 151.621 13.4133C151.463 13.6594 151.243 13.8439 150.953 13.9757C150.663 14.1075 150.32 14.169 149.924 14.169H149.027V15.3991H147.999V10.9443H149.924C150.32 10.9443 150.663 11.0058 150.953 11.1376ZM150.575 13.1234C150.733 12.9916 150.812 12.7983 150.812 12.5522C150.812 12.3062 150.733 12.1129 150.575 11.9723C150.416 11.8405 150.179 11.7702 149.871 11.7702H149.027V13.3167H149.871C150.179 13.3167 150.416 13.2464 150.575 13.1146" fill="#00354C"/>
<path d="M153.476 15.1794C153.106 14.9861 152.816 14.7049 152.614 14.3623C152.403 14.0108 152.298 13.6154 152.298 13.1761C152.298 12.7367 152.403 12.3414 152.614 11.9899C152.825 11.6384 153.115 11.366 153.476 11.1727C153.845 10.9706 154.258 10.874 154.715 10.874C155.102 10.874 155.454 10.9443 155.761 11.0761C156.069 11.2079 156.333 11.41 156.544 11.6648L155.884 12.2711C155.585 11.9196 155.207 11.7527 154.768 11.7527C154.495 11.7527 154.249 11.8142 154.029 11.9372C153.81 12.0602 153.643 12.2271 153.52 12.4468C153.397 12.6665 153.335 12.9125 153.335 13.1849C153.335 13.4572 153.397 13.7033 153.52 13.9229C153.643 14.1426 153.81 14.3095 154.029 14.4326C154.249 14.5556 154.487 14.6171 154.768 14.6171C155.216 14.6171 155.585 14.4413 155.884 14.0899L156.544 14.7049C156.333 14.9597 156.069 15.1618 155.752 15.2936C155.436 15.4254 155.084 15.4957 154.706 15.4957C154.249 15.4957 153.845 15.3991 153.476 15.197" fill="#00354C"/>
<path d="M160.746 11.779H159.322V15.3991H158.302V11.779H156.887V10.9443H160.746V11.779Z" fill="#00354C"/>
<path d="M165.009 13.4661C165.15 13.6506 165.229 13.8702 165.229 14.1426C165.229 14.538 165.08 14.8455 164.781 15.0652C164.482 15.2849 164.051 15.3991 163.497 15.3991H161.3V10.9443H163.374C163.893 10.9443 164.297 11.041 164.587 11.243C164.877 11.4451 165.018 11.7263 165.018 12.0953C165.018 12.315 164.965 12.5083 164.851 12.6753C164.737 12.8422 164.587 12.974 164.385 13.0707C164.658 13.1497 164.86 13.2815 165.009 13.4661ZM162.328 12.7895H163.286C163.506 12.7895 163.682 12.7456 163.796 12.6577C163.91 12.5698 163.972 12.4292 163.972 12.2535C163.972 12.0778 163.91 11.946 163.796 11.8493C163.682 11.7527 163.515 11.7087 163.295 11.7087H162.337V12.7895H162.328ZM164.183 14.0548C164.183 13.6857 163.937 13.5012 163.453 13.5012H162.319V14.6259H163.453C163.937 14.6259 164.183 14.4326 164.183 14.0548Z" fill="#00354C"/>
<path d="M166.855 15.1706C166.486 14.9685 166.196 14.6962 165.985 14.3447C165.774 13.9932 165.669 13.5978 165.669 13.1673C165.669 12.7367 165.774 12.3326 165.985 11.9899C166.196 11.6384 166.486 11.366 166.855 11.1639C167.225 10.9619 167.647 10.8652 168.104 10.8652C168.561 10.8652 168.983 10.9619 169.352 11.1639C169.721 11.366 170.011 11.6384 170.222 11.9899C170.433 12.3413 170.539 12.7367 170.539 13.1673C170.539 13.5978 170.433 14.002 170.222 14.3447C170.011 14.6962 169.721 14.9685 169.352 15.1706C168.983 15.3727 168.57 15.4694 168.104 15.4694C167.638 15.4694 167.225 15.3727 166.855 15.1706ZM168.816 14.415C169.027 14.292 169.194 14.125 169.317 13.9054C169.44 13.6857 169.501 13.4397 169.501 13.1673C169.501 12.8949 169.44 12.6489 169.317 12.4292C169.194 12.2095 169.027 12.0426 168.816 11.9196C168.605 11.7966 168.367 11.7351 168.104 11.7351C167.84 11.7351 167.603 11.7966 167.392 11.9196C167.181 12.0426 167.014 12.2095 166.891 12.4292C166.767 12.6489 166.706 12.8949 166.706 13.1673C166.706 13.4397 166.767 13.6857 166.891 13.9054C167.014 14.125 167.181 14.292 167.392 14.415C167.603 14.538 167.84 14.5995 168.104 14.5995C168.367 14.5995 168.605 14.538 168.816 14.415Z" fill="#00354C"/>
<path d="M177.22 10.9443V15.3991H176.183V13.5715H174.161V15.3991H173.132V10.9443H174.161V12.6928H176.183V10.9443H177.22Z" fill="#00354C"/>
<path d="M181.272 14.4414H179.207L178.811 15.3991H177.756L179.743 10.9443H180.763L182.749 15.3991H181.668L181.272 14.4414ZM180.947 13.6594L180.244 11.9548L179.541 13.6594H180.956H180.947Z" fill="#00354C"/>
<path d="M185.14 10.9443H186.16V13.8439L188.288 10.9443H189.255V15.3991H188.235V12.4995L186.116 15.3991H185.14V10.9443Z" fill="#00354C"/>
<path d="M194.318 10.9443V15.3991H193.29V13.5715H191.268V15.3991H190.239V10.9443H191.268V12.6928H193.29V10.9443H194.318Z" fill="#00354C"/>
<path d="M196.208 15.1706C195.839 14.9685 195.549 14.6962 195.338 14.3447C195.127 13.9932 195.021 13.5978 195.021 13.1673C195.021 12.7367 195.127 12.3326 195.338 11.9899C195.549 11.6384 195.839 11.366 196.208 11.1639C196.577 10.9619 196.999 10.8652 197.457 10.8652C197.914 10.8652 198.336 10.9619 198.705 11.1639C199.074 11.366 199.364 11.6384 199.575 11.9899C199.786 12.3413 199.892 12.7367 199.892 13.1673C199.892 13.5978 199.786 14.002 199.575 14.3447C199.364 14.6962 199.074 14.9685 198.705 15.1706C198.336 15.3727 197.922 15.4694 197.457 15.4694C196.991 15.4694 196.577 15.3727 196.208 15.1706ZM198.177 14.415C198.388 14.292 198.555 14.125 198.678 13.9054C198.802 13.6857 198.863 13.4397 198.863 13.1673C198.863 12.8949 198.802 12.6489 198.678 12.4292C198.555 12.2095 198.388 12.0426 198.177 11.9196C197.966 11.7966 197.729 11.7351 197.465 11.7351C197.202 11.7351 196.964 11.7966 196.753 11.9196C196.542 12.0426 196.375 12.2095 196.252 12.4292C196.129 12.6489 196.068 12.8949 196.068 13.1673C196.068 13.4397 196.129 13.6857 196.252 13.9054C196.375 14.125 196.542 14.292 196.753 14.415C196.964 14.538 197.202 14.5995 197.465 14.5995C197.729 14.5995 197.966 14.538 198.177 14.415Z" fill="#00354C"/>
<path d="M204.305 13.4661C204.445 13.6506 204.524 13.8702 204.524 14.1426C204.524 14.538 204.375 14.8455 204.076 15.0652C203.777 15.2849 203.346 15.3991 202.793 15.3991H200.595V10.9443H202.67C203.188 10.9443 203.593 11.041 203.883 11.243C204.173 11.4451 204.313 11.7263 204.313 12.0953C204.313 12.315 204.261 12.5083 204.146 12.6753C204.032 12.8422 203.883 12.974 203.68 13.0707C203.953 13.1497 204.155 13.2815 204.305 13.4661ZM201.623 12.7895H202.582C202.81 12.7895 202.977 12.7456 203.091 12.6577C203.206 12.5698 203.267 12.4292 203.267 12.2535C203.267 12.0778 203.206 11.946 203.091 11.8493C202.977 11.7527 202.81 11.7087 202.582 11.7087H201.623V12.7895ZM203.478 14.0548C203.478 13.6857 203.232 13.5012 202.749 13.5012H201.615V14.6259H202.749C203.232 14.6259 203.478 14.4326 203.478 14.0548Z" fill="#00354C"/>
<path d="M208.234 14.4414H206.168L205.773 15.3991H204.718L206.705 10.9443H207.724L209.711 15.3991H208.63L208.234 14.4414ZM207.909 13.6594L207.206 11.9548L206.502 13.6594H207.918H207.909Z" fill="#00354C"/>
<path d="M214.906 14.5556V16.3393H213.966V15.3991H210.238V10.9443H211.267V14.5556H213.254V10.9443H214.273V14.5556H214.906Z" fill="#00354C"/>
<path d="M215.513 10.9443H216.542V13.8439L218.66 10.9443H219.627V15.3991H218.607V12.4995L216.489 15.3991H215.513V10.9443Z" fill="#00354C"/>
<path d="M220.612 10.9443H221.631V13.8439L223.759 10.9443H224.726V15.3991H223.706V12.4995L221.579 15.3991H220.612V10.9443Z" fill="#00354C"/>
<path d="M229.139 11.779H227.715V15.3991H226.695V11.779H225.28V10.9443H229.139V11.779Z" fill="#00354C"/>
<path d="M233.148 14.5644V15.3991H229.693V10.9443H233.06V11.7702H230.721V12.7368H232.787V13.5363H230.721V14.5644H233.148Z" fill="#00354C"/>
<path d="M235.776 10.9443H236.805V13.8439L238.923 10.9443H239.89V15.3991H238.87V12.4995L236.752 15.3991H235.776V10.9443Z" fill="#00354C"/>
<path d="M245.754 11.1376C246.044 11.2694 246.264 11.4539 246.422 11.7C246.58 11.9372 246.659 12.2271 246.659 12.561C246.659 12.8949 246.58 13.1761 246.422 13.4133C246.264 13.6594 246.044 13.8439 245.754 13.9757C245.464 14.1075 245.121 14.169 244.725 14.169H243.828V15.3991H242.8V10.9443H244.725C245.121 10.9443 245.464 11.0058 245.754 11.1376ZM245.376 13.1234C245.534 12.9916 245.613 12.7983 245.613 12.5522C245.613 12.3062 245.534 12.1129 245.376 11.9723C245.217 11.8405 244.98 11.7702 244.672 11.7702H243.828V13.3167H244.672C244.98 13.3167 245.217 13.2464 245.376 13.1146" fill="#00354C"/>
<path d="M250.008 14.4414H247.943L247.547 15.3991H246.492L248.479 10.9443H249.499L251.485 15.3991H250.404L250.008 14.4414ZM249.683 13.6594L248.98 11.9548L248.277 13.6594H249.692H249.683Z" fill="#00354C"/>
<path d="M252.681 15.1794C252.312 14.9861 252.022 14.7049 251.819 14.3623C251.608 14.0108 251.503 13.6154 251.503 13.1761C251.503 12.7367 251.608 12.3414 251.819 11.9899C252.03 11.6384 252.32 11.366 252.681 11.1727C253.05 10.9706 253.463 10.874 253.92 10.874C254.307 10.874 254.65 10.9443 254.967 11.0761C255.274 11.2079 255.538 11.41 255.749 11.6648L255.09 12.2711C254.791 11.9196 254.413 11.7527 253.973 11.7527C253.701 11.7527 253.455 11.8142 253.235 11.9372C253.015 12.0602 252.848 12.2271 252.734 12.4468C252.611 12.6665 252.549 12.9125 252.549 13.1849C252.549 13.4572 252.611 13.7033 252.734 13.9229C252.857 14.1426 253.024 14.3095 253.235 14.4326C253.455 14.5556 253.701 14.6171 253.973 14.6171C254.422 14.6171 254.791 14.4413 255.09 14.0899L255.749 14.7049C255.538 14.9597 255.274 15.1618 254.958 15.2936C254.641 15.4254 254.29 15.4957 253.912 15.4957C253.455 15.4957 253.05 15.3991 252.681 15.197" fill="#00354C"/>
<path d="M259.951 11.779H258.527V15.3991H257.507V11.779H256.092V10.9443H259.951V11.779Z" fill="#00354C"/>
<path d="M263.951 14.5644V15.3991H260.505V10.9443H263.872V11.7702H261.533V12.7368H263.599V13.5363H261.533V14.5644H263.951Z" fill="#00354C"/>
<path d="M268.874 13.5979H268.232V15.3991H267.221V13.5979H266.553L265.56 15.3991H264.364L265.7 13.0707L264.452 10.9443H265.533L266.535 12.7456H267.221V10.9443H268.232V12.7456H268.891L269.893 10.9443H270.984L269.735 13.0707L271.063 15.3991H269.876L268.874 13.5979Z" fill="#00354C"/>
<path d="M274.887 14.4414H272.821L272.425 15.3991H271.37L273.357 10.9443H274.377L276.364 15.3991H275.282L274.887 14.4414ZM274.561 13.6594L273.858 11.9548L273.155 13.6594H274.57H274.561Z" fill="#00354C"/>
<path d="M7.36216 71.9319C15.6344 84.8657 30.1218 93.4414 46.6135 93.4414C63.1052 93.4414 77.6014 84.8657 85.8649 71.9319C74.7004 63.1893 61.0218 58.4445 46.6135 58.4445C32.2052 58.4445 18.5266 63.1893 7.36216 71.9319Z" fill="#00354C"/>
<path d="M46.6135 50.0709C36.8732 50.0709 27.423 51.9776 18.5266 55.7383C13.1466 58.014 8.1006 60.9048 3.459 64.3843C4.12711 66.0361 4.89192 67.6441 5.74464 69.1993C17.4014 60.1755 31.6338 55.2901 46.6223 55.2901C61.6108 55.2901 75.8344 60.1843 87.4912 69.1993C88.3439 67.6441 89.0999 66.0361 89.7768 64.3843C85.1352 60.9136 80.0892 58.0228 74.7092 55.7383C65.8128 51.9776 56.3626 50.0709 46.6223 50.0709" fill="#8CC747"/>
<path d="M15.863 53.4625C16.0827 53.3659 16.3025 53.2692 16.5223 53.1726C16.786 53.0584 17.0497 52.9441 17.3135 52.8299C17.6036 52.7069 17.9024 52.5839 18.1925 52.4697C18.3859 52.3906 18.5881 52.3027 18.7815 52.2236C19.2738 52.0303 19.7749 51.837 20.276 51.6525C20.4079 51.6086 20.5397 51.5558 20.6628 51.5119C21.0672 51.3625 21.4715 51.2132 21.8847 51.0726C22.0078 51.0287 22.1397 50.9847 22.2627 50.9408C22.7023 50.7914 23.1418 50.642 23.5814 50.5015C23.6693 50.4751 23.7484 50.4487 23.8363 50.4224C25.5066 49.8952 27.2032 49.4207 28.9174 49.0077V32.4802C25.6209 40.3002 21.0408 47.4349 15.441 53.6383C15.5729 53.5768 15.7135 53.5153 15.8454 53.4537" fill="#008CC6"/>
<path d="M64.292 34.5099V49.0077C66.0062 49.4207 67.7029 49.8952 69.3731 50.4224C69.461 50.4487 69.549 50.4751 69.6369 50.5102C70.0764 50.6508 70.516 50.8002 70.9555 50.9496C71.0874 50.9935 71.2104 51.0374 71.3335 51.0814C71.7467 51.222 72.1511 51.3713 72.5554 51.5207C72.6873 51.5646 72.8104 51.6174 72.9422 51.6613C73.4433 51.8458 73.9444 52.0391 74.4367 52.2324C74.6301 52.3115 74.8323 52.3906 75.0257 52.4697C75.3246 52.5927 75.6147 52.7069 75.9048 52.8299C76.1685 52.9441 76.4322 53.0584 76.696 53.1726C76.9157 53.2692 77.1355 53.3659 77.3553 53.4625C77.4871 53.524 77.6278 53.5768 77.7597 53.6383C72.1599 47.4349 67.5798 40.2915 64.2832 32.4802V34.5099H64.292Z" fill="#008CC6"/>
<path d="M46.6135 0.391632C20.9089 0.391632 0.0657196 21.2158 0.0657196 46.9165C0.0657196 51.9337 0.865691 56.7663 2.33377 61.3002C2.33377 61.3002 2.33377 61.3002 2.34256 61.3002C2.44805 61.2211 2.55354 61.142 2.66782 61.0629C5.43696 58.9981 8.05664 56.7224 10.5357 54.2533C17.164 47.6283 22.3682 39.9136 25.9989 31.3292C27.1505 28.6053 28.135 25.8288 28.935 22.9995C29.19 22.0945 29.4273 21.1807 29.6471 20.2756H32.091C32.091 21.3037 32.091 22.3229 32.091 23.43V30.099V48.34C36.7941 47.4174 41.6467 46.9341 46.6135 46.9341C51.5804 46.9341 56.4241 47.4174 61.1097 48.3312H61.1361V23.4212C61.1361 22.9819 61.1361 22.5777 61.1361 22.1911C61.1361 21.5409 61.1361 20.9434 61.1361 20.2844H63.5799C63.7997 21.1982 64.0371 22.1033 64.292 23.0083C65.092 25.8288 66.0766 28.6141 67.2282 31.3379C70.8588 39.9224 76.063 47.637 82.6913 54.2621C85.1616 56.7311 87.7901 59.0069 90.5592 61.0717C90.6647 61.1508 90.779 61.2299 90.8845 61.309C92.3613 56.7839 93.1525 51.9425 93.1525 46.9253C93.1525 21.2334 72.3093 0.400419 46.6047 0.400419M57.6021 20.1966C51.5364 20.1966 46.6135 25.1171 46.6135 31.1798V31.2061C46.6135 25.1434 41.6906 20.2229 35.6249 20.2229V20.2054C41.6906 20.2054 46.6135 15.2849 46.6135 9.22214V9.19578C46.6135 15.2585 51.5364 20.179 57.6021 20.179V20.1966Z" fill="#008CC6"/>
</g>
<defs>
<clipPath id="clip0_2021_1059">
<rect width="300" height="94" fill="white"/>
</clipPath>
</defs>
</svg>
